<?xml version="1.0" encoding="UTF-8" standalone="no"?>

<svg
   height="512"
   width="512"
   version="1.1"
   id="Layer_1"
   viewBox="0 0 327.68 327.68"
   xml:space="preserve"
   sodipodi:docname="logo.svg"
   inkscape:export-filename="logo.png"
   inkscape:export-xdpi="96"
   inkscape:export-ydpi="96"
   inkscape:version="1.2.2 (732a01da63, 2022-12-09)"
   xmlns:inkscape="http://www.inkscape.org/namespaces/inkscape"
   xmlns:sodipodi="http://sodipodi.sourceforge.net/DTD/sodipodi-0.dtd"
   xmlns="http://www.w3.org/2000/svg"
   xmlns:svg="http://www.w3.org/2000/svg"><defs
   id="defs15" /><sodipodi:namedview
   id="namedview13"
   pagecolor="#505050"
   bordercolor="#ffffff"
   borderopacity="1"
   inkscape:showpageshadow="0"
   inkscape:pageopacity="0"
   inkscape:pagecheckerboard="1"
   inkscape:deskcolor="#505050"
   showgrid="false"
   inkscape:zoom="0.90774833"
   inkscape:cx="109.61188"
   inkscape:cy="311.76042"
   inkscape:window-width="2560"
   inkscape:window-height="1369"
   inkscape:window-x="-8"
   inkscape:window-y="1022"
   inkscape:window-maximized="1"
   inkscape:current-layer="Layer_1" />
<path
   style="fill:#ffa733;stroke-width:0.640001"
   d="M 300.27776,76.468875 236.0128,39.365478 c -0.0454,-0.02688 -0.0934,-0.04992 -0.13888,-0.07616 -0.032,-0.01856 -0.0614,-0.03968 -0.0934,-0.0576 L 171.28704,1.9964819 c -4.60864,-2.66112254 -10.28608,-2.66112254 -14.89472,0 L 27.40224,76.468875 C 22.7936,79.129357 19.9552,84.046482 19.9552,89.367447 V 238.31287 c 0,5.32161 2.83904,10.23873 7.44704,12.89858 l 128.99072,74.47303 c 2.304,1.33056 4.87552,1.99616 7.44704,1.99616 2.57152,0 5.14368,-0.6656 7.44704,-1.99616 l 128.99072,-74.47303 c 4.60864,-2.66049 7.44704,-7.57761 7.44704,-12.89858 V 89.367447 c 6.4e-4,-5.320965 -2.8384,-10.23809 -7.44704,-12.898572 z"
   id="path2" />
<path
   style="fill:#ff6243;stroke-width:0.640001"
   d="m 233.88416,38.308197 c -1.1104,-0.44608 -2.26112,-0.75264 -3.42783,-0.92032 -2.87745,-0.416001 -5.89313,0.0038 -8.66241,1.361281 -0.30656,0.14976 -0.60864,0.31104 -0.90688,0.48256 L 213.44,43.531243 156.39168,76.468235 c -0.009,0.0051 -0.0198,0.01088 -0.0275,0.016 l -31.56736,18.225937 -2.87936,1.663362 -21.8624,12.621456 -0.71104,0.41024 14.89472,8.59905 14.89472,8.59904 14.15744,8.17409 20.54912,11.86497 24.80128,-14.31873 89.296,-51.555251 7.44704,-4.299524 c 4.60864,-2.661123 10.28608,-2.661123 14.89472,0 L 236.01408,39.365478 c -0.0454,-0.02688 -0.0934,-0.04992 -0.13888,-0.07616 -0.63872,-0.37312 -1.29792,-0.70272 -1.97888,-0.976001 -0.004,-0.0019 -0.008,-0.0032 -0.0122,-0.0051 z"
   id="path4" />
<path
   style="fill:#ff7956;stroke-width:0.640001"
   d="m 178.73473,312.78591 v -8.59905 -17.1981 -114.54923 -8.59905 c 0,-2.66048 -0.70977,-5.21985 -1.99617,-7.44705 -1.28576,-2.2272 -3.14752,-4.12096 -5.45152,-5.45152 L 163.84,146.64238 143.29024,134.77741 129.1328,126.60332 114.23808,118.00428 99.34336,109.40523 81.13536,98.892577 49.744,80.768399 42.29696,76.468875 c -4.60864,-2.661123 -10.28608,-2.661123 -14.89472,0 -4.60864,2.660482 -7.44704,7.577607 -7.44704,12.898572 V 238.31287 c 0,5.32161 2.83904,10.23873 7.44704,12.89858 l 128.99072,74.47303 c 2.304,1.33056 4.87552,1.99616 7.44704,1.99616 2.57152,0 5.14368,-0.6656 7.44704,-1.99616 4.60864,-2.65984 7.44769,-7.57697 7.44769,-12.89857 z"
   id="path6" />
<path
   style="fill:#ff5023;stroke-width:0.640001"
   d="m 42.29632,76.468875 7.44704,4.299524 31.392,18.123538 18.208,10.512653 22.57216,-13.031696 34.44736,-19.888019 c 0.009,-0.0051 0.0198,-0.01088 0.0275,-0.016 l 57.04832,-32.936992 7.44704,-4.299525 c 0.2976,-0.17152 0.59968,-0.3328 0.90688,-0.48256 2.76928,-1.357441 5.78432,-1.777282 8.66241,-1.361281 1.16671,0.16768 2.31743,0.47488 3.42783,0.92032 0.004,0.0013 0.008,0.0032 0.0122,0.0051 0.68096,0.273281 1.3408,0.602881 1.97888,0.976001 -0.032,-0.01856 -0.0614,-0.03968 -0.0934,-0.0576 L 171.28704,1.9964819 c -4.60864,-2.66112254 -10.28608,-2.66112254 -14.89472,0 L 27.40224,76.468875 c 4.60736,-2.661123 10.28608,-2.661123 14.89408,0 z"
   id="path8" />
<polygon
   style="fill:#af2e08"
   points="190.493,150.582 155.224,170.944 156.335,170.304 "
   id="polygon10"
   transform="matrix(0.64000001,0,0,0.64000063,0,3.2001219e-4)" />
</svg>
