<?xml version="1.0" encoding="UTF-8" standalone="no"?>
<!-- Uploaded to: SVG Repo, www.svgrepo.com, Generator: SVG Repo Mixer Tools -->

<svg
   height="512"
   width="512"
   version="1.1"
   id="Layer_1"
   viewBox="0 0 327.33632 327.33632"
   xml:space="preserve"
   sodipodi:docname="flower-svgrepo-com (1).svg"
   inkscape:export-filename="logo.png"
   inkscape:export-xdpi="96"
   inkscape:export-ydpi="96"
   inkscape:version="1.2.2 (732a01da63, 2022-12-09)"
   xmlns:inkscape="http://www.inkscape.org/namespaces/inkscape"
   xmlns:sodipodi="http://sodipodi.sourceforge.net/DTD/sodipodi-0.dtd"
   xmlns="http://www.w3.org/2000/svg"
   xmlns:svg="http://www.w3.org/2000/svg"><defs
   id="defs1098" /><sodipodi:namedview
   id="namedview1096"
   pagecolor="#505050"
   bordercolor="#ffffff"
   borderopacity="1"
   inkscape:showpageshadow="0"
   inkscape:pageopacity="0"
   inkscape:pagecheckerboard="1"
   inkscape:deskcolor="#505050"
   showgrid="false"
   inkscape:zoom="1"
   inkscape:cx="683.5"
   inkscape:cy="523"
   inkscape:window-width="2560"
   inkscape:window-height="1369"
   inkscape:window-x="-8"
   inkscape:window-y="1022"
   inkscape:window-maximized="1"
   inkscape:current-layer="Layer_1" />
<path
   style="fill:#021f02;stroke-width:0.64"
   d="m 323.89205,163.858 c 2.13121,1.22368 3.44384,3.49889 3.44384,5.95328 -0.007,39.67939 -21.35233,76.64389 -55.70435,96.47687 -17.17953,9.91297 -36.44163,14.87617 -55.69732,14.87617 -17.99041,0 -35.97442,-4.33089 -52.26691,-12.97921 -16.29249,8.64832 -34.28291,12.97921 -52.26691,12.97921 -19.2621,0 -38.517793,-4.9568 -55.697323,-14.87617 C 21.352334,246.45517 0.00704,209.49131 0,169.81128 0,167.35689 1.3132809,165.08168 3.4438422,163.858 16.147851,156.53 30.37122,151.75176 44.93827,149.86183 44.690589,128.5575 50.135713,107.68644 60.85252,89.132188 c 1.23072,-2.12416 3.498882,-3.43744 5.953284,-3.43744 h 0.007 c 15.78369,0.0205 31.60194,3.2448 46.155546,9.37025 0.47424,-0.85249 0.94848,-1.71201 1.44384,-2.55041 11.08866,-18.808327 26.93443,-34.517138 45.81827,-45.419545 2.13121,-1.230721 4.75713,-1.230721 6.88129,0 18.87745,10.923527 34.70914,26.631698 45.79139,45.426585 0.49472,0.84544 0.9696,1.69792 1.44384,2.55041 14.56705,-6.13185 30.39234,-9.35617 46.17603,-9.37665 h 0.007 c 2.4544,0 4.72257,1.31328 5.95328,3.43744 10.71041,18.554252 16.16193,39.425312 15.91425,60.729642 14.56705,1.88993 28.79043,6.66753 41.49443,13.99553 z m -59.13411,90.52358 c 28.94849,-16.71169 47.35874,-47.31011 48.7469,-80.54853 -9.98144,-5.21088 -20.89857,-8.68225 -32.0557,-10.22209 -1.97311,15.57057 -6.99136,30.41986 -14.96577,44.23747 -10.60736,18.36865 -25.92385,33.56802 -44.28547,43.95587 -9.90592,5.59616 -20.55489,9.72736 -31.57442,12.29185 24.69954,6.5984 51.48292,3.36064 74.13446,-9.71457 z m 3.65695,-98.77959 c 1.31329,-19.53728 -2.79104,-38.83394 -11.89312,-56.075552 -12.36033,0.494722 -24.66562,3.203202 -36.11843,7.919362 6.54464,15.50209 9.95457,32.25538 9.95457,49.24228 0,22.60353 -6.03584,44.78722 -17.45409,64.16004 -6.48961,11.01952 -14.62913,20.96065 -24.04034,29.51234 27.34018,-6.79872 51.31844,-24.4525 65.71333,-49.38628 8.112,-14.05888 12.77248,-29.32737 13.83808,-45.37219 z m -51.80611,1.08609 c 0,-20.14913 -5.376,-39.92707 -15.55009,-57.182122 -9.19808,-15.60513 -22.07425,-28.824979 -37.39074,-38.435226 -15.32353,9.596807 -28.20611,22.809616 -37.41122,38.421786 -10.17409,17.262092 -15.55009,37.040032 -15.55009,57.196202 0,20.15617 5.376,39.9341 15.55009,57.18916 9.20511,15.61217 22.08769,28.83137 37.41122,38.42818 15.31649,-9.61025 28.19266,-22.83009 37.39074,-38.43522 10.17409,-17.26274 15.55009,-37.03363 15.55009,-57.18276 z m -78.17029,93.6583 c -9.40417,-8.53825 -17.53665,-18.47874 -24.02626,-29.48482 -11.41824,-19.37218 -17.454086,-41.56355 -17.454086,-64.17348 0,-16.99394 3.409926,-33.74723 9.954566,-49.24868 -11.439367,-4.70912 -23.737615,-7.4176 -36.097944,-7.912322 -9.102085,17.240972 -13.205768,36.538272 -11.893128,56.068512 1.065601,16.05186 5.726724,31.32035 13.838089,45.37859 14.38849,24.9197 38.352673,42.56644 65.678763,49.3722 z m -1.7184,13.74913 c -11.01952,-2.56449 -21.67554,-6.69569 -31.58146,-12.29825 -18.368653,-10.38081 -33.678103,-25.58018 -44.28547,-43.94883 -7.974406,-13.81057 -12.992648,-28.6669 -14.96577,-44.23747 -11.157127,1.53984 -22.074254,5.01121 -32.055701,10.22209 1.388801,33.23842 19.798413,63.83684 48.746912,80.54853 22.651535,13.07521 49.441309,16.31297 74.141489,9.71393 z"
   id="path1081" />
<path
   style="fill:#ef95bf;stroke-width:0.64"
   d="m 313.50484,173.83305 c -1.3888,33.23842 -19.79841,63.83684 -48.7469,80.54853 -22.65154,13.07521 -49.43428,16.31297 -74.13446,9.71393 11.01953,-2.56449 21.6685,-6.69569 31.57442,-12.29185 18.36162,-10.38721 33.67811,-25.58722 44.28547,-43.95587 7.97441,-13.81761 12.99266,-28.6669 14.96577,-44.23747 11.15713,1.54048 22.07426,5.01185 32.0557,10.22273 z"
   id="path1083" />
<path
   style="fill:#ed5d9f;stroke-width:0.64"
   d="m 256.52241,99.526438 c 9.10208,17.240972 13.20577,36.538272 11.89312,56.075552 -1.0656,16.04482 -5.72672,31.31331 -13.83808,45.37155 -14.39553,24.93378 -38.37379,42.58756 -65.71333,49.38628 9.41121,-8.55169 17.55073,-18.49218 24.04034,-29.51234 11.41825,-19.37218 17.45409,-41.55651 17.45409,-64.16004 0,-16.9869 -3.40993,-33.74019 -9.95457,-49.24228 11.45217,-4.71488 23.7581,-7.424 36.11843,-7.918722 z"
   id="path1085" />
<path
   style="fill:#ef95bf;stroke-width:0.64"
   d="m 201.05869,99.505958 c 10.17409,17.255052 15.55009,37.032992 15.55009,57.182122 0,20.14913 -5.376,39.92002 -15.55009,57.18212 -9.19808,15.60513 -22.07425,28.82497 -37.39074,38.43522 -15.32353,-9.59681 -28.20611,-22.81665 -37.41122,-38.42818 -10.17409,-17.25506 -15.55009,-37.03299 -15.55009,-57.18916 0,-20.15617 5.376,-39.93411 15.55009,-57.196202 9.20511,-15.61217 22.08769,-28.824979 37.41122,-38.421786 15.31649,9.610887 28.19266,22.830736 37.39074,38.435866 z m 0.43968,88.007102 c 3.1552,-9.97505 4.79872,-20.42433 4.79872,-30.82498 0,-3.79456 -3.07967,-6.87425 -6.87424,-6.87425 -3.79456,0 -6.87424,3.07969 -6.87424,6.87425 0,26.5837 -12.41537,52.45251 -33.20387,69.19876 -2.95615,2.38529 -3.42336,6.70976 -1.03808,9.66529 1.36128,1.69088 3.34785,2.56448 5.35553,2.56448 1.51936,0 3.03872,-0.49472 4.3104,-1.51936 11.80353,-9.50721 21.53793,-21.77857 28.14401,-35.47907 1.96609,-4.09024 3.65697,-8.31104 5.06625,-12.62848 0.12992,-0.31616 0.24,-0.63936 0.31552,-0.97664 z"
   id="path1087" />
<path
   style="fill:#021f02;stroke-width:0.64"
   d="m 206.29709,156.68808 c 0,10.40129 -1.64288,20.85057 -4.79872,30.82498 -0.0755,0.33664 -0.1856,0.65984 -0.31616,0.976 -1.40928,4.31744 -3.10016,8.53824 -5.06625,12.62848 -6.60608,13.70114 -16.34048,25.97186 -28.14401,35.47907 -1.27168,1.024 -2.79104,1.51936 -4.3104,1.51936 -2.00704,0 -3.99425,-0.87296 -5.35553,-2.56448 -2.38528,-2.95617 -1.91807,-7.28 1.03808,-9.66529 20.7885,-16.74625 33.20387,-42.61506 33.20387,-69.19876 0,-3.79456 3.07968,-6.87425 6.87424,-6.87425 3.79521,0 6.87488,3.08033 6.87488,6.87489 z"
   id="path1089" />
<path
   style="fill:#ed5d9f;stroke-width:0.64"
   d="m 114.41223,220.86156 c 6.48961,11.00608 14.62209,20.94657 24.02626,29.48482 -27.32609,-6.80576 -51.290913,-24.4525 -65.678763,-49.37284 -8.112005,-14.05824 -12.773128,-29.32673 -13.838089,-45.37859 -1.31328,-19.53024 2.791043,-38.8269 11.893128,-56.068512 12.360329,0.494722 24.658577,3.203202 36.097944,7.912322 -6.54464,15.50209 -9.954566,32.25538 -9.954566,49.24868 0,22.61057 6.035846,44.80194 17.454086,64.17412 z"
   id="path1091" />
<path
   style="fill:#ef95bf;stroke-width:0.64"
   d="m 105.13863,251.79662 c 9.90592,5.60256 20.56194,9.7344 31.58146,12.29825 -24.70018,6.59968 -51.489954,3.36192 -74.141489,-9.71393 -28.948499,-16.71169 -47.358751,-47.31011 -48.746912,-80.54853 9.982087,-5.21088 20.898574,-8.68225 32.055701,-10.22209 1.973122,15.57057 6.991364,30.42626 14.96577,44.23747 10.607367,18.36929 25.916817,33.56866 44.28547,43.94883 z"
   id="path1093" />
</svg>
